<svg width="24" height="24" fill="none" xmlns="http://www.w3.org/2000/svg"><path d="M11.972 5.818a6.153 6.153 0 1 0 0 12.306 6.153 6.153 0 0 0 0-12.306Zm0 10.149a3.997 3.997 0 1 1 0-7.995 3.997 3.997 0 0 1 0 7.995ZM18.369 7.026a1.435 1.435 0 1 0 0-2.87 1.435 1.435 0 0 0 0 2.87Z" fill="#fff"/><path d="M23.328 4.133A6.12 6.12 0 0 0 19.824.631a8.783 8.783 0 0 0-2.909-.56C15.636.017 15.229 0 11.98 0c-3.25 0-3.666 0-4.937.072-.993.02-1.976.21-2.906.559A6.121 6.121 0 0 0 .632 4.133a8.782 8.782 0 0 0-.557 2.909C.017 8.322 0 8.728 0 11.979c0 3.25 0 3.663.075 4.937.02.995.207 1.977.557 2.91a6.122 6.122 0 0 0 3.505 3.502 8.784 8.784 0 0 0 2.908.599c1.281.056 1.687.073 4.936.073 3.25 0 3.666 0 4.937-.073a8.783 8.783 0 0 0 2.909-.558 6.122 6.122 0 0 0 3.504-3.503c.35-.932.537-1.914.557-2.91.057-1.28.075-1.685.075-4.936 0-3.25 0-3.663-.075-4.937a8.783 8.783 0 0 0-.56-2.95Zm-1.62 12.684a6.655 6.655 0 0 1-.415 2.246 3.993 3.993 0 0 1-2.278 2.277 6.653 6.653 0 0 1-2.222.414c-1.264.058-1.62.073-4.862.073-3.244 0-3.576 0-4.864-.073a6.653 6.653 0 0 1-2.22-.414 3.993 3.993 0 0 1-2.288-2.277 6.787 6.787 0 0 1-.414-2.22c-.057-1.265-.07-1.621-.07-4.863 0-3.241 0-3.574.07-4.864a6.654 6.654 0 0 1 .414-2.244 3.974 3.974 0 0 1 2.287-2.279 6.653 6.653 0 0 1 2.221-.413c1.266-.058 1.621-.074 4.864-.074s3.575 0 4.862.074c.759.01 1.51.15 2.222.413a3.992 3.992 0 0 1 2.278 2.279c.262.712.401 1.462.414 2.22.058 1.266.072 1.621.072 4.864s0 3.59-.057 4.862l-.015-.001Z" fill="#fff"/></svg>