<svg width="1175" height="395" fill="none" xmlns="http://www.w3.org/2000/svg"><g filter="url('#filter0_d_11_57')" fill="#fff"><path d="m203.68 51.025-43.186 48.68-69.366-16.07-5.021 70.843 68.629.536-19.618 38.167-32.674 4.553 60.594 174.432-111.614-36.695 16.872-50.019L15 163.518 85.638 15 203.68 51.025Z"/><path d="m190.624 85.375 49.279 41.449-8.302 105.931 36.223 15.266 8.972-148.718 49.814-4.018-.937 50.488-1.406 80.352 28.858 23.57-46.802 62.474-41.178-45.198-23.233 49.484-67.089-29.864 3.682-118.252-23.769-13.325 35.888-69.639Z"/><path d="m385.866 90.732-60.193 55.041 35.553 25.043.201 129.97 53.632-2.477 9.373-128.497 33.612 20.222 37.093-48.011-40.843-45.265-34.883 42.587-33.545-48.613Z"/><path d="m477.595 298.844 54.435-2.477 5.356-169.41-60.996 38.369 1.205 133.518ZM492.057 98.098l45.329 28.859 70.102-100.975-115.431 72.116Z"/><path d="m630.521 234.562-13.994-11.985 63.474-76.67-42.851-58.523-70.504 53.166-33.411 93.611 65.549 64.75 44.525 5.357 49.079-68.032-61.8-1.674h-.067Zm-41.579-30.533-.804-56.448 39.973 26.382-27.184 38.369-11.985-8.236v-.067Z"/><path d="m720.04 80.487-40.039 65.42 17.341 28.927-.468 97.092 44.123 34.753 39.169-41.449 14.262 33.413 47.203-22.23-6.695-175.436-49.882-7.567-6.696 150.929-30.263 7.566 5.758-114.904-33.813-56.514ZM995.629 84.103l-90.122 4.018-55.64 53.635 6.361 48.479 70.705-.804 15.533 81.491-56.041-64.014-44.794 69.505 67.826 42.988 76.664-57.251 4.821-91.802-25.041-15.066-61.197 11.115.401-45.265 60.796 34.15 29.728-71.18Z"/><path d="m1159 256.793-76.6-9.843-14.73-14.262 71.18-90.865-37.83-75.13-81.49 50.086-28.588 53.569 30.598 109.948 31.94 25.512-9.84 74.125 115.43-123.274-.07.134Zm-106.59-39.305-7.84-6.897 3.95-71.179 36.36 33.413-32.41 44.663h-.06Z"/></g><defs><filter id="filter0_d_11_57" x="0" y="0" width="1174.07" height="394.933" filterUnits="userSpaceOnUse" color-interpolation-filters="sRGB"><feFlood flood-opacity="0" result="BackgroundImageFix"/><feColorMatrix in="SourceAlpha" values="0 0 0 0 0 0 0 0 0 0 0 0 0 0 0 0 0 0 127 0" result="hardAlpha"/><feOffset/><feGaussianBlur stdDeviation="7.5"/><feColorMatrix values="0 0 0 0 0 0 0 0 0 0 0 0 0 0 0 0 0 0 0.1 0"/><feBlend in2="BackgroundImageFix" result="effect1_dropShadow_11_57"/><feBlend in="SourceGraphic" in2="effect1_dropShadow_11_57" result="shape"/></filter></defs></svg>