<svg width="25" height="18" viewBox="0 0 25 18" fill="none" xmlns="http://www.w3.org/2000/svg">
<path d="M24.4607 3.18592C24.3252 2.6752 24.0578 2.20906 23.6853 1.83419C23.3129 1.45931 22.8486 1.18886 22.3387 1.04992C20.4677 0.544922 12.9627 0.544922 12.9627 0.544922C12.9627 0.544922 5.45774 0.544922 3.58574 1.04992C3.07615 1.18911 2.61203 1.45966 2.23982 1.8345C1.8676 2.20935 1.60033 2.67536 1.46474 3.18592C0.962738 5.06992 0.962738 8.99992 0.962738 8.99992C0.962738 8.99992 0.962738 12.9299 1.46474 14.8139C1.60032 15.3246 1.86771 15.7908 2.24013 16.1657C2.61255 16.5405 3.07692 16.811 3.58674 16.9499C5.45774 17.4549 12.9627 17.4549 12.9627 17.4549C12.9627 17.4549 20.4677 17.4549 22.3397 16.9499C22.8496 16.8111 23.314 16.5407 23.6865 16.1658C24.0589 15.7909 24.3262 15.3247 24.4617 14.8139C24.9627 12.9299 24.9627 8.99992 24.9627 8.99992C24.9627 8.99992 24.9627 5.06992 24.4607 3.18592ZM10.5077 12.5679V5.43192L16.7807 8.99992L10.5077 12.5679Z" fill="white"></path>
</svg>
