<svg width="24" height="24" viewBox="0 0 24 24" fill="none" xmlns="http://www.w3.org/2000/svg">
<path d="M11.9721 5.81787C10.3402 5.81787 8.77519 6.46614 7.62127 7.62005C6.46736 8.77397 5.81909 10.339 5.81909 11.9709C5.81909 13.6028 6.46736 15.1678 7.62127 16.3217C8.77519 17.4757 10.3402 18.1239 11.9721 18.1239C13.604 18.1239 15.1691 17.4757 16.323 16.3217C17.4769 15.1678 18.1251 13.6028 18.1251 11.9709C18.1251 10.339 17.4769 8.77397 16.323 7.62005C15.1691 6.46614 13.604 5.81787 11.9721 5.81787ZM11.9721 15.9669C11.4472 15.9669 10.9274 15.8635 10.4424 15.6626C9.95742 15.4617 9.51676 15.1673 9.14557 14.7961C8.77439 14.4249 8.47995 13.9843 8.27906 13.4993C8.07818 13.0143 7.97478 12.4945 7.97478 11.9696C7.97478 11.4446 8.07818 10.9248 8.27906 10.4399C8.47995 9.95487 8.77439 9.51421 9.14557 9.14302C9.51676 8.77184 9.95742 8.47739 10.4424 8.27651C10.9274 8.07562 11.4472 7.97223 11.9721 7.97223C13.0323 7.97223 14.049 8.39338 14.7987 9.14302C15.5483 9.89267 15.9695 10.9094 15.9695 11.9696C15.9695 13.0297 15.5483 14.0465 14.7987 14.7961C14.049 15.5458 13.0323 15.9669 11.9721 15.9669Z" fill="white"/>
<path d="M18.3687 7.02591C19.1609 7.02591 19.8032 6.38368 19.8032 5.59145C19.8032 4.79921 19.1609 4.15698 18.3687 4.15698C17.5765 4.15698 16.9342 4.79921 16.9342 5.59145C16.9342 6.38368 17.5765 7.02591 18.3687 7.02591Z" fill="white"/>
<path d="M23.328 4.13307C23.0203 3.33736 22.5497 2.61475 21.9463 2.01161C21.343 1.40848 20.6202 0.938126 19.8244 0.630738C18.8934 0.281098 17.9098 0.0921161 16.9155 0.0718562C15.6341 0.0159679 15.2282 0 11.9787 0C8.72921 0 8.31271 -1.33843e-07 7.04192 0.0718562C6.04855 0.0924164 5.06587 0.281393 4.13573 0.630738C3.3399 0.938126 2.61712 1.40848 2.01375 2.01161C1.41038 2.61475 0.939758 3.33736 0.632069 4.13307C0.282882 5.06413 0.0943516 6.04773 0.0745176 7.04192C0.0172987 8.32202 0 8.72788 0 11.9787C0 15.2295 -9.91428e-09 15.642 0.0745176 16.9155C0.0944777 17.9108 0.282102 18.8929 0.632069 19.8257C0.939905 20.6215 1.41074 21.3442 2.01434 21.9474C2.61794 22.5505 3.34099 23.0208 4.13706 23.328C5.06523 23.6911 6.04845 23.8936 7.04458 23.9268C8.32601 23.9827 8.73187 24 11.9814 24C15.2309 24 15.6474 24 16.9182 23.9268C17.9124 23.907 18.896 23.7184 19.827 23.3693C20.623 23.0617 21.3458 22.5912 21.9492 21.9878C22.5526 21.3844 23.0231 20.6616 23.3307 19.8656C23.6806 18.9341 23.8683 17.9521 23.8882 16.9568C23.9454 15.6766 23.9627 15.2708 23.9627 12.02C23.9627 8.76913 23.9627 8.35662 23.8882 7.08317C23.8722 6.07493 23.6827 5.07698 23.328 4.13307ZM21.7073 16.817C21.6998 17.584 21.5598 18.3439 21.2934 19.0632C21.0926 19.5801 20.7864 20.0495 20.3942 20.4415C20.0019 20.8335 19.5323 21.1395 19.0153 21.34C18.3036 21.6037 17.552 21.7436 16.7931 21.7538C15.5289 21.8124 15.1723 21.827 11.9308 21.827C8.68663 21.827 8.35529 21.827 7.0672 21.7538C6.30872 21.7435 5.5576 21.6035 4.84631 21.34C4.32755 21.1406 3.85614 20.8351 3.46225 20.4431C3.06836 20.051 2.76067 19.581 2.55888 19.0632C2.29782 18.3512 2.15794 17.6005 2.14504 16.8423C2.08782 15.5782 2.07452 15.2216 2.07452 11.98C2.07452 8.73852 2.07452 8.40585 2.14504 7.11643C2.15264 6.3499 2.29265 5.59044 2.55888 4.87159C2.96474 3.82169 3.79641 2.99534 4.84631 2.59348C5.5576 2.32994 6.30872 2.18998 7.0672 2.17964C8.33267 2.12242 8.68796 2.10645 11.9308 2.10645C15.1737 2.10645 15.5063 2.10645 16.7931 2.17964C17.552 2.18983 18.3036 2.32979 19.0153 2.59348C19.5325 2.79409 20.0021 3.10028 20.3944 3.49251C20.7866 3.88475 21.0928 4.35443 21.2934 4.87159C21.5545 5.58357 21.6944 6.33426 21.7073 7.09248C21.7645 8.35795 21.7791 8.71324 21.7791 11.9561C21.7791 15.1989 21.7791 15.5462 21.7219 16.8184L21.7073 16.817Z" fill="white"/>
</svg>
