<svg width="1175" height="395" viewBox="0 0 1175 395" fill="none" xmlns="http://www.w3.org/2000/svg">
<g filter="url(#filter0_d_11_57)">
<path d="M203.68 51.0246L160.494 99.7047L91.1283 83.6342L86.1066 154.478L154.736 155.014L135.118 193.181L102.444 197.734L163.038 372.166L51.4237 335.471L68.2965 285.452L15 163.518L85.6379 15L203.68 51.0246Z" fill="white"/>
<path d="M190.624 85.3752L239.903 126.824L231.601 232.755L267.824 248.021L276.796 99.3029L326.61 95.2853L325.673 145.773L324.267 226.125L353.125 249.695L306.323 312.169L265.145 266.971L241.912 316.455L174.823 286.591L178.505 168.339L154.736 155.014L190.624 85.3752Z" fill="white"/>
<path d="M385.866 90.732L325.673 145.773L361.226 170.816L361.427 300.786L415.059 298.309L424.432 169.812L458.044 190.034L495.137 142.023L454.294 96.7584L419.411 139.345L385.866 90.732Z" fill="white"/>
<path d="M477.595 298.844L532.03 296.367L537.386 126.957L476.39 165.326L477.595 298.844Z" fill="white"/>
<path d="M492.057 98.0976L537.386 126.957L607.488 25.9815L492.057 98.0976Z" fill="white"/>
<path d="M630.521 234.562L616.527 222.577L680.001 145.907L637.15 87.384L566.646 140.55L533.235 234.161L598.784 298.911L643.309 304.268L692.388 236.236L630.588 234.562H630.521ZM588.942 204.029L588.138 147.581L628.111 173.963L600.927 212.332L588.942 204.096V204.029Z" fill="white"/>
<path d="M720.04 80.4871L680.001 145.907L697.342 174.834L696.874 271.926L740.997 306.679L780.166 265.23L794.428 298.643L841.631 276.413L834.936 100.977L785.054 93.4104L778.358 244.339L748.095 251.905L753.853 137.001L720.04 80.4871Z" fill="white"/>
<path d="M995.629 84.1029L905.507 88.1205L849.867 141.756L856.228 190.235L926.933 189.431L942.466 270.922L886.425 206.908L841.631 276.413L909.457 319.401L986.121 262.15L990.942 170.348L965.901 155.282L904.704 166.397L905.105 121.132L965.901 155.282L995.629 84.1029Z" fill="white"/>
<path d="M1159 256.793L1082.4 246.95L1067.67 232.688L1138.85 141.823L1101.02 66.6933L1019.53 116.779L990.942 170.348L1021.54 280.296L1053.48 305.808L1043.64 379.933L1159.07 256.659L1159 256.793ZM1052.41 217.488L1044.57 210.591L1048.52 139.412L1084.88 172.825L1052.47 217.488H1052.41Z" fill="white"/>
</g>
<defs>
<filter id="filter0_d_11_57" x="0" y="0" width="1174.07" height="394.933" filterUnits="userSpaceOnUse" color-interpolation-filters="sRGB">
<feFlood flood-opacity="0" result="BackgroundImageFix"/>
<feColorMatrix in="SourceAlpha" type="matrix" values="0 0 0 0 0 0 0 0 0 0 0 0 0 0 0 0 0 0 127 0" result="hardAlpha"/>
<feOffset/>
<feGaussianBlur stdDeviation="7.5"/>
<feColorMatrix type="matrix" values="0 0 0 0 0 0 0 0 0 0 0 0 0 0 0 0 0 0 0.1 0"/>
<feBlend mode="normal" in2="BackgroundImageFix" result="effect1_dropShadow_11_57"/>
<feBlend mode="normal" in="SourceGraphic" in2="effect1_dropShadow_11_57" result="shape"/>
</filter>
</defs>
</svg>
